<svg width="56" height="55" viewBox="0 0 56 55" fill="none" xmlns="http://www.w3.org/2000/svg">
<path d="M55.1375 3.38828C55.1375 2.5359 54.7722 1.80528 54.1634 1.19644C53.5545 0.709362 52.8239 0.344055 52.0933 0.344055H3.62919C2.65504 0.344055 1.92442 0.709362 1.43734 1.19644C0.828499 1.80528 0.584961 2.5359 0.584961 3.38828V51.8524C0.584961 52.7048 0.828499 53.4354 1.43734 54.0442C1.92442 54.6531 2.65504 54.8966 3.62919 54.8966H29.6878V33.7088H22.6252V25.5503H29.6878V19.4618C29.6878 16.0523 30.6619 13.3734 32.6102 11.425C34.5585 9.59851 37.1157 8.62436 40.2817 8.62436C42.7171 8.62436 44.9089 8.74612 46.6137 8.86789V16.2958H42.23C40.647 16.2958 39.5511 16.6611 38.9422 17.3917C38.4552 18.0006 38.2116 18.9747 38.2116 20.3142V25.5503H46.3701L45.2742 33.7088H38.2116V54.8966H52.0933C52.9457 54.8966 53.6763 54.6531 54.2851 54.0442C54.7722 53.4354 55.1375 52.7048 55.1375 51.8524V3.38828Z" fill="white"/>
</svg>
