<svg width="56" height="55" viewBox="0 0 56 55" fill="none" xmlns="http://www.w3.org/2000/svg">
<path d="M27.8739 13.6169C30.3093 13.6169 32.6229 14.3475 34.8148 15.5652C37.0066 16.7829 38.7114 18.4877 39.9291 20.6795C41.1468 22.8713 41.8774 25.185 41.8774 27.6203C41.8774 30.1775 41.1468 32.4911 39.9291 34.6829C38.7114 36.8748 37.0066 38.5796 34.8148 39.7972C32.6229 41.0149 30.3093 41.6238 27.8739 41.6238C25.3168 41.6238 23.0032 41.0149 20.8113 39.7972C18.6195 38.5796 16.9147 36.8748 15.697 34.6829C14.4793 32.4911 13.8705 30.1775 13.8705 27.6203C13.8705 25.185 14.4793 22.8713 15.697 20.6795C16.9147 18.4877 18.6195 16.7829 20.8113 15.5652C23.0032 14.3475 25.3168 13.6169 27.8739 13.6169ZM27.8739 36.753C30.3093 36.753 32.5012 35.9006 34.3277 34.0741C36.0325 32.3693 37.0066 30.1775 37.0066 27.6203C37.0066 25.185 36.0325 22.9931 34.3277 21.1666C32.5012 19.4618 30.3093 18.4877 27.8739 18.4877C25.3168 18.4877 23.1249 19.4618 21.4202 21.1666C19.5936 22.9931 18.7413 25.185 18.7413 27.6203C18.7413 30.1775 19.5936 32.3693 21.4202 34.0741C23.1249 35.9006 25.3168 36.753 27.8739 36.753ZM45.774 13.008C45.774 12.1557 45.4087 11.425 44.7998 10.6944C44.0692 10.0856 43.3386 9.72028 42.4862 9.72028C41.5121 9.72028 40.7815 10.0856 40.1726 10.6944C39.442 11.425 39.1985 12.1557 39.1985 13.008C39.1985 13.9822 39.442 14.7128 40.1726 15.3217C40.7815 16.0523 41.5121 16.2958 42.4862 16.2958C43.3386 16.2958 44.0692 16.0523 44.6781 15.3217C45.2869 14.7128 45.6522 13.9822 45.774 13.008ZM55.0285 16.2958C55.0285 18.6094 55.1502 22.3843 55.1502 27.6203C55.1502 32.9782 55.0285 36.753 54.9067 39.0666C54.7849 41.3802 54.4196 43.3286 53.9325 45.0333C53.2019 47.1034 51.9842 48.9299 50.523 50.3912C49.0618 51.8524 47.2352 52.9483 45.2869 53.6789C43.5822 54.2878 41.5121 54.6531 39.1985 54.7748C36.8849 54.8966 33.11 54.8966 27.8739 54.8966C22.5161 54.8966 18.7413 54.8966 16.4276 54.7748C14.114 54.6531 12.1657 54.2878 10.461 53.5572C8.39088 52.9483 6.56434 51.8524 5.10311 50.3912C3.64188 48.9299 2.54596 47.1034 1.81535 45.0333C1.2065 43.3286 0.841195 41.3802 0.719425 39.0666C0.597656 36.753 0.597656 32.9782 0.597656 27.6203C0.597656 22.3843 0.597656 18.6094 0.719425 16.2958C0.841195 13.9822 1.2065 11.9121 1.81535 10.2074C2.54596 8.25905 3.64188 6.43251 5.10311 4.97128C6.56434 3.51005 8.39088 2.29236 10.461 1.56175C12.1657 1.07467 14.114 0.709363 16.4276 0.587594C18.7413 0.465824 22.5161 0.344055 27.8739 0.344055C33.11 0.344055 36.8849 0.465824 39.1985 0.587594C41.5121 0.709363 43.5822 1.07467 45.2869 1.56175C47.2352 2.29236 49.0618 3.51005 50.523 4.97128C51.9842 6.43251 53.2019 8.25905 53.9325 10.2074C54.4196 11.9121 54.7849 13.9822 55.0285 16.2958ZM49.1835 43.6939C49.6706 42.3544 49.9141 40.1626 50.1577 37.1183C50.1577 35.4136 50.2795 32.8564 50.2795 29.5686V25.672C50.2795 22.3843 50.1577 19.8271 50.1577 18.1223C49.9141 15.0781 49.6706 12.8863 49.1835 11.5468C48.2094 9.11143 46.3828 7.28489 43.9475 6.31074C42.608 5.82367 40.4162 5.58013 37.3719 5.33659C35.5454 5.33659 32.9882 5.21482 29.8222 5.21482H25.9256C22.6379 5.21482 20.0807 5.33659 18.3759 5.33659C15.3317 5.58013 13.1399 5.82367 11.8004 6.31074C9.24326 7.28489 7.5385 9.11143 6.56434 11.5468C6.07727 12.8863 5.71196 15.0781 5.59019 18.1223C5.46842 19.9489 5.46842 22.506 5.46842 25.672V29.5686C5.46842 32.8564 5.46842 35.4136 5.59019 37.1183C5.71196 40.1626 6.07727 42.3544 6.56434 43.6939C7.5385 46.251 9.36503 47.9558 11.8004 48.9299C13.1399 49.417 15.3317 49.7823 18.3759 49.9041C20.0807 50.0259 22.6379 50.0259 25.9256 50.0259H29.8222C33.11 50.0259 35.6672 50.0259 37.3719 49.9041C40.4162 49.7823 42.608 49.417 43.9475 48.9299C46.3828 47.9558 48.2094 46.1292 49.1835 43.6939Z" fill="white"/>
</svg>
