<?xml version="1.0" encoding="UTF-8"?>
<svg width="74px" height="74px" viewBox="0 0 74 74" version="1.1" xmlns="http://www.w3.org/2000/svg" xmlns:xlink="http://www.w3.org/1999/xlink">
    <!-- Generator: Sketch 52.5 (67469) - http://www.bohemiancoding.com/sketch -->
    <title>Group 4</title>
    <desc>Created with Sketch.</desc>
    <defs>
        <path d="M8.95283847e-12,31.5048465 L8.95283847e-12,28.3629814 L8.95283847e-12,0.102246141 C5.38832662,0.102246141 28,-2.26704834 28,15.804878 C28,29.02367 16.6146533,30.4210306 7.86983466,30.218245 C4.11988245,30.218245 1.70918051,30.8499561 -1.48769885e-14,31.5048465 Z M7.875,31.1029372 L7.875,35.9975201 L1.02318154e-11,36 L1.02318154e-11,32.4076792 C1.72023275,31.761832 4.13572253,31.1327136 7.87499367,31.1029373 Z M23.7153172,27.8643478 L27.4367944,36.0077845 L18.7605726,35.9873842 L16.3553858,30.6189353 C19.045943,30.1598874 21.6135528,29.3226067 23.7153172,27.8643478 Z M7.875,7.94788175 C7.875,7.94788175 7.875,21.9057768 7.875,21.9057768 C10.815,21.9057768 20.125,22.9587966 20.125,14.9268293 C20.125,6.89486198 10.2323929,7.94788175 7.875,7.94788175 Z" id="path-1"></path>
    </defs>
    <g id="About" stroke="none" stroke-width="1" fill="none" fill-rule="evenodd">
        <g id="MacBook-Pro-13'" transform="translate(-683.000000, -32.000000)">
            <g id="Group-4" transform="translate(683.000000, 32.000000)">
                <g id="Group">
                    <path d="M32.5135456,-1.01498304e-15 L41.4864544,1.01498304e-15 C51.0161257,-7.35589173e-16 55.7953528,1.25259972 60.1934356,3.60472013 C64.5915183,5.95684055 68.0431595,9.40848166 70.3952799,13.8065644 C72.7474003,18.2046472 74,22.9838743 74,32.5135456 L74,41.4864544 C74,51.0161257 72.7474003,55.7953528 70.3952799,60.1934356 C68.0431595,64.5915183 64.5915183,68.0431595 60.1934356,70.3952799 C55.7953528,72.7474003 51.0161257,74 41.4864544,74 L32.5135456,74 C22.9838743,74 18.2046472,72.7474003 13.8065644,70.3952799 C9.40848166,68.0431595 5.95684055,64.5915183 3.60472013,60.1934356 C1.25259972,55.7953528 4.90392782e-16,51.0161257 -6.76655359e-16,41.4864544 L6.76655359e-16,32.5135456 C-4.90392782e-16,22.9838743 1.25259972,18.2046472 3.60472013,13.8065644 C5.95684055,9.40848166 9.40848166,5.95684055 13.8065644,3.60472013 C18.2046472,1.25259972 22.9838743,7.35589173e-16 32.5135456,-1.01498304e-15 Z" id="Rectangle-5" fill="#FFFFFF"></path>
                    <g id="logo-thick-line-color" transform="translate(23.505882, 19.152941)">
                        <mask id="mask-2" fill="white">
                            <use xlink:href="#path-1"></use>
                        </mask>
                        <use id="Combined-Shape" fill="#000000" fill-rule="evenodd" xlink:href="#path-1"></use>
                        <g id="green-earthy" mask="url(#mask-2)" fill="#6C8672" fill-rule="evenodd">
                            <g transform="translate(-8.750000, -1.756098)" id="purple">
                                <rect x="0" y="0" width="46" height="40"></rect>
                            </g>
                        </g>
                    </g>
                </g>
            </g>
        </g>
    </g>
</svg>