<?xml version="1.0" encoding="UTF-8"?>
<svg width="194px" height="194px" viewBox="0 0 194 194" version="1.1" xmlns="http://www.w3.org/2000/svg" xmlns:xlink="http://www.w3.org/1999/xlink">
    <!-- Generator: Sketch 52.5 (67469) - http://www.bohemiancoding.com/sketch -->
    <title>Group 4</title>
    <desc>Created with Sketch.</desc>
    <defs>
        <path d="M2.33413289e-11,82.2626548 L2.33413289e-11,74.058896 L2.33404407e-11,0.266976034 C14.0481372,0.266976034 73,-5.91951511 73,41.2682927 C73,75.7840272 43.3167748,79.4326911 20.5177832,78.9031953 C10.7411221,78.9031953 4.45607777,80.5526633 -3.7081449e-14,82.2626548 Z M0.134191176,57.3170732 L1.02318154e-11,57.3170732 L1.02318154e-11,77.0166143 C0.0894607843,76.7272322 0.134191176,76.5103779 0.134191176,76.3660516 L0.134191176,57.3170732 Z M20.53125,81.2132249 L20.53125,93.9935248 L1.02318154e-11,94 L1.02318154e-11,84.6200513 C4.48489253,82.9336724 10.7824194,81.2909745 20.5312335,81.2132251 Z M61.8292196,72.7569075 L71.5316425,94.0203263 L48.9114928,93.9670587 L42.6408273,79.9494421 C49.6554945,78.750817 56.34962,76.5645841 61.8292202,72.7569078 Z M20.53125,20.7528024 C20.53125,20.7528024 20.53125,57.1984172 20.53125,57.1984172 C28.19625,57.1984172 52.46875,59.9479688 52.46875,38.9756098 C52.46875,18.0032507 26.67731,20.7528024 20.53125,20.7528024 Z" id="path-1"></path>
    </defs>
    <g id="WEbsite" stroke="none" stroke-width="1" fill="none" fill-rule="evenodd">
        <g id="MacBook-Pro-13'-Copy-10" transform="translate(-623.000000, -256.000000)">
            <g id="Group-4" transform="translate(623.000000, 256.000000)">
                <g id="Group">
                    <path d="M85.2382142,-2.66090148e-15 L108.761786,2.66090148e-15 C133.744978,-1.92843648e-15 146.274303,3.2838425 157.804412,9.45021224 C169.334521,15.616582 178.383418,24.6654789 184.549788,36.1955879 C190.716157,47.7256968 194,60.2550219 194,85.2382142 L194,108.761786 C194,133.744978 190.716157,146.274303 184.549788,157.804412 C178.383418,169.334521 169.334521,178.383418 157.804412,184.549788 C146.274303,190.716157 133.744978,194 108.761786,194 L85.2382142,194 C60.2550219,194 47.7256968,190.716157 36.1955879,184.549788 C24.6654789,178.383418 15.616582,169.334521 9.45021224,157.804412 C3.2838425,146.274303 1.28562432e-15,133.744978 -1.77393432e-15,108.761786 L1.77393432e-15,85.2382142 C-1.28562432e-15,60.2550219 3.2838425,47.7256968 9.45021224,36.1955879 C15.616582,24.6654789 24.6654789,15.616582 36.1955879,9.45021224 C47.7256968,3.2838425 60.2550219,1.92843648e-15 85.2382142,-2.66090148e-15 Z" id="Rectangle-5" fill="#6C8672"></path>
                    <g id="logo-thick-line-color" transform="translate(61.623529, 50.211765)">
                        <mask id="mask-2" fill="white">
                            <use xlink:href="#path-1"></use>
                        </mask>
                        <use id="Combined-Shape" fill="#000000" fill-rule="evenodd" xlink:href="#path-1"></use>
                        <g id="white" mask="url(#mask-2)" fill="#FFFFFF" fill-rule="evenodd">
                            <g transform="translate(-22.812500, -4.585366)" id="red">
                                <rect x="0" y="0" width="121" height="103"></rect>
                            </g>
                        </g>
                    </g>
                </g>
            </g>
        </g>
    </g>
</svg>