<svg width="339" height="435" viewBox="0 0 339 435" fill="none" xmlns="http://www.w3.org/2000/svg">
<path d="M1.08543e-10 380.601V342.645V1.23521C65.2372 1.23521 339 -27.3876 339 190.934C339 350.627 201.156 367.508 95.2812 365.058C49.88 365.058 20.6933 372.69 0 380.601H1.08543e-10ZM95.3438 375.746V434.876L1.08543e-10 434.906V391.508C20.8271 383.706 50.0718 376.106 95.3437 375.746H95.3438ZM287.125 336.621L332.181 435L227.137 434.754L198.017 369.899C230.592 364.353 261.678 354.238 287.125 336.621ZM95.3438 96.0161V264.638C130.939 264.638 243.656 277.359 243.656 180.327C243.656 83.2949 123.885 96.0161 95.3438 96.0161Z" fill="#445B49"/>
</svg>
