<svg width="45" height="57" viewBox="0 0 45 57" fill="none" xmlns="http://www.w3.org/2000/svg">
<path d="M0 49.8719V44.8983V0.161855C8.65981 0.161855 45 -3.58872 45 25.019C45 45.9442 26.7021 48.1562 12.6479 47.8352C6.62124 47.8352 2.7469 48.8352 0 49.8719H0ZM12.6562 49.2357V56.9838L0 56.9877V51.3011C2.76466 50.2787 6.6467 49.2828 12.6562 49.2357H12.6562ZM38.1139 44.109L44.0948 57L30.1509 56.9677L26.2854 48.4695C30.6096 47.7428 34.7361 46.4174 38.1139 44.109ZM12.6562 12.5814V34.6766C17.3813 34.6766 32.3438 36.3436 32.3438 23.629C32.3438 10.9145 16.4449 12.5814 12.6562 12.5814Z" fill="white"/>
</svg>
